<svg width="102" height="80" viewBox="0 0 102 80" fill="none" xmlns="http://www.w3.org/2000/svg">
<path d="M29.3864 46.7101C29.2429 46.3073 29.0752 45.9176 28.9157 45.5565C28.6701 45.0011 28.4129 44.4446 28.1641 43.9067L28.1444 43.864C25.9255 39.0589 23.5439 34.1881 21.0659 29.387L20.9607 29.1832C20.7079 28.6929 20.4466 28.186 20.1784 27.6879C19.8604 27.0575 19.4745 26.4636 19.0276 25.9167C18.5245 25.3165 17.8956 24.8338 17.1853 24.5027C16.475 24.1715 15.7005 23.9999 14.9165 24C14.1325 24.0001 13.3581 24.1719 12.6478 24.5032C11.9376 24.8346 11.3088 25.3174 10.8059 25.9177C10.3595 26.4648 9.97383 27.0585 9.65572 27.6886C9.38521 28.1912 9.12145 28.7028 8.8664 29.1976L8.76872 29.387C6.29061 34.1884 3.90903 39.0592 1.69015 43.8639L1.65782 43.9338C1.41334 44.463 1.16057 45.0102 0.919073 45.5563C0.75949 45.9171 0.592009 46.3065 0.448355 46.7103C0.0369063 47.8104 -0.094204 48.9953 0.0668098 50.1585C0.237562 51.334 0.713008 52.4447 1.44606 53.3804C2.17911 54.3161 3.14434 55.0444 4.24614 55.4932C5.07835 55.8299 5.96818 56.002 6.86616 56C7.14824 55.9999 7.43008 55.9835 7.71027 55.9509C8.846 55.8062 9.94136 55.4366 10.9321 54.8639C12.2317 54.1338 13.5152 53.0638 14.9173 51.5348C16.3194 53.0638 17.6029 54.1338 18.9025 54.8639C19.8932 55.4367 20.9886 55.8062 22.1243 55.9509C22.4045 55.9835 22.6864 55.9999 22.9685 56C23.8664 56.002 24.7561 55.8299 25.5883 55.4932C26.6901 55.0444 27.6554 54.3161 28.3885 53.3804C29.1216 52.4447 29.5971 51.3341 29.7679 50.1585C29.9287 48.9952 29.7976 47.8103 29.3864 46.7101ZM14.9173 48.377C13.1816 46.1769 12.0678 44.1338 11.677 42.421C11.5169 41.7792 11.4791 41.1131 11.5656 40.4573C11.6339 39.9766 11.8105 39.5176 12.0821 39.1148C12.4163 38.6814 12.8458 38.3304 13.3374 38.0889C13.829 37.8475 14.3696 37.7219 14.9175 37.7219C15.4655 37.722 16.006 37.8476 16.4976 38.0892C16.9892 38.3307 17.4186 38.6817 17.7528 39.1151C18.0244 39.5181 18.201 39.9771 18.2693 40.4579C18.3556 41.114 18.3177 41.7803 18.1573 42.4223C17.7661 44.1349 16.6526 46.1774 14.9173 48.377ZM27.7406 49.8689C27.6212 50.6908 27.2887 51.4674 26.7762 52.1216C26.2636 52.7759 25.5887 53.2852 24.8183 53.599C24.0393 53.9111 23.1939 54.0217 22.3607 53.9205C21.4946 53.8089 20.6599 53.5239 19.9069 53.0824C18.7501 52.4325 17.5791 51.4348 16.2614 49.9712C18.3591 47.3846 19.669 45.0005 20.154 42.877C20.3723 41.984 20.4196 41.0579 20.2935 40.1475C20.1791 39.3632 19.8879 38.615 19.4419 37.9593C18.9194 37.2519 18.2378 36.6768 17.452 36.2805C16.6661 35.8842 15.798 35.6777 14.9175 35.6777C14.0371 35.6777 13.1689 35.8841 12.383 36.2803C11.5971 36.6765 10.9155 37.2515 10.393 37.9589C9.94707 38.6144 9.65591 39.3624 9.5414 40.1465C9.41524 41.0566 9.4623 41.9822 9.68011 42.8749C10.1648 44.9993 11.4748 47.384 13.5732 49.9714C12.2555 51.4348 11.0845 52.4325 9.92769 53.0825C9.17468 53.5239 8.34007 53.809 7.47395 53.9205C6.64065 54.0217 5.79525 53.9111 5.0162 53.599C4.24581 53.2852 3.57092 52.7759 3.05838 52.1217C2.54585 51.4674 2.21345 50.6908 2.09411 49.8689C1.97932 49.0334 2.07701 48.1825 2.37818 47.3946C2.49266 47.0728 2.62663 46.757 2.7926 46.3818C3.0274 45.851 3.27657 45.3115 3.51759 44.7898L3.54996 44.7197C5.75643 39.9419 8.12481 35.0982 10.5894 30.3229L10.6875 30.1328C10.9384 29.646 11.1979 29.1427 11.4597 28.6563C11.7101 28.155 12.0132 27.6817 12.3639 27.2444C12.6746 26.869 13.0646 26.5668 13.5059 26.3593C13.9473 26.1519 14.4291 26.0443 14.9169 26.0442C15.4047 26.0442 15.8866 26.1517 16.3279 26.3591C16.7693 26.5665 17.1593 26.8687 17.4701 27.244C17.821 27.681 18.1242 28.1541 18.3744 28.6554C18.6338 29.1374 18.891 29.6362 19.1398 30.1186L19.2452 30.3232C21.7097 35.0979 24.078 39.9415 26.2847 44.7201L26.3046 44.7631C26.5498 45.2936 26.8033 45.8419 27.042 46.382C27.2082 46.7577 27.3424 47.0738 27.4566 47.3944C27.7576 48.1824 27.8553 49.0333 27.7406 49.8689Z" fill="#FF385C"/>
<path d="M41.6847 48.1196C40.8856 48.1196 40.1505 47.9594 39.4792 47.6391C38.808 47.3188 38.2327 46.8703 37.7212 46.2937C37.2098 45.7172 36.8263 45.0445 36.5386 44.3078C36.2509 43.539 36.123 42.7062 36.123 41.8093C36.123 40.9124 36.2829 40.0475 36.5705 39.2787C36.8582 38.51 37.2737 37.8373 37.7852 37.2287C38.2966 36.6521 38.9039 36.1716 39.6071 35.8513C40.3103 35.531 41.0455 35.3708 41.8765 35.3708C42.6756 35.3708 43.3788 35.531 44.0181 35.8833C44.6574 36.2037 45.1688 36.6841 45.5843 37.2927L45.6802 35.7232H48.6209V47.7992H45.6802L45.5843 46.0375C45.1688 46.6781 44.6254 47.1906 43.9222 47.575C43.2829 47.9274 42.5158 48.1196 41.6847 48.1196ZM42.4519 45.2367C43.0272 45.2367 43.5386 45.0765 44.0181 44.7882C44.4656 44.4679 44.8172 44.0515 45.1049 43.539C45.3606 43.0265 45.4884 42.4179 45.4884 41.7452C45.4884 41.0725 45.3606 40.4639 45.1049 39.9514C44.8492 39.4389 44.4656 39.0225 44.0181 38.7022C43.5706 38.3818 43.0272 38.2537 42.4519 38.2537C41.8765 38.2537 41.3651 38.4139 40.8856 38.7022C40.4382 39.0225 40.0866 39.4389 39.7989 39.9514C39.5432 40.4639 39.4153 41.0725 39.4153 41.7452C39.4153 42.4179 39.5432 43.0265 39.7989 43.539C40.0546 44.0515 40.4382 44.4679 40.8856 44.7882C41.3651 45.0765 41.8765 45.2367 42.4519 45.2367ZM53.6392 32.4559C53.6392 32.8082 53.5753 33.1286 53.4154 33.3848C53.2556 33.6411 53.0319 33.8653 52.7442 34.0255C52.4565 34.1856 52.1369 34.2497 51.8173 34.2497C51.4976 34.2497 51.178 34.1856 50.8903 34.0255C50.6026 33.8653 50.3789 33.6411 50.2191 33.3848C50.0592 33.0965 49.9953 32.8082 49.9953 32.4559C49.9953 32.1035 50.0592 31.7832 50.2191 31.527C50.3789 31.2387 50.6026 31.0465 50.8903 30.8863C51.178 30.7262 51.4976 30.6621 51.8173 30.6621C52.1369 30.6621 52.4565 30.7262 52.7442 30.8863C53.0319 31.0465 53.2556 31.2707 53.4154 31.527C53.5433 31.7832 53.6392 32.0715 53.6392 32.4559ZM50.2191 47.7672V35.6911H53.4154V47.7672H50.2191ZM61.9498 38.8623V38.8943C61.79 38.8303 61.5982 38.7982 61.4383 38.7662C61.2466 38.7342 61.0867 38.7342 60.895 38.7342C60 38.7342 59.3287 38.9904 58.8812 39.535C58.4018 40.0795 58.178 40.8483 58.178 41.8413V47.7672H54.9817V35.6911H57.9223L58.0182 37.517C58.3379 36.8763 58.7214 36.3958 59.2648 36.0435C59.7762 35.6911 60.3835 35.531 61.0867 35.531C61.3105 35.531 61.5342 35.563 61.726 35.595C61.8219 35.6271 61.8858 35.6271 61.9498 35.6591V38.8623ZM63.2283 47.7672V30.7262H66.4247V37.2287C66.8722 36.6521 67.3836 36.2036 68.0229 35.8513C68.6623 35.531 69.3654 35.3388 70.1645 35.3388C70.9635 35.3388 71.6987 35.4989 72.3699 35.8193C73.0412 36.1396 73.6165 36.588 74.128 37.1646C74.6394 37.7412 75.0229 38.4139 75.3106 39.1506C75.5983 39.9194 75.7261 40.7522 75.7261 41.6491C75.7261 42.546 75.5663 43.4109 75.2787 44.1796C74.991 44.9484 74.5756 45.6211 74.064 46.2297C73.5527 46.8063 72.9454 47.2867 72.2421 47.6071C71.5389 47.9274 70.8037 48.0875 69.9727 48.0875C69.1736 48.0875 68.4704 47.9274 67.8311 47.575C67.1918 47.2547 66.6804 46.7742 66.2649 46.1656L66.169 47.7352L63.2283 47.7672ZM69.3973 45.2367C69.9727 45.2367 70.4841 45.0765 70.9635 44.7882C71.411 44.4679 71.7626 44.0515 72.0503 43.539C72.306 43.0265 72.4339 42.4179 72.4339 41.7452C72.4339 41.0725 72.306 40.4639 72.0503 39.9514C71.7626 39.4389 71.411 39.0225 70.9635 38.7022C70.5161 38.3818 69.9727 38.2537 69.3973 38.2537C68.822 38.2537 68.3106 38.4139 67.8311 38.7022C67.3836 39.0225 67.032 39.4389 66.7443 39.9514C66.4886 40.4639 66.3608 41.0725 66.3608 41.7452C66.3608 42.4179 66.4886 43.0265 66.7443 43.539C67 44.0515 67.3836 44.4679 67.8311 44.7882C68.3106 45.0765 68.822 45.2367 69.3973 45.2367ZM76.9408 47.7672V35.6911H79.8814L79.9773 37.2607C80.3289 36.6841 80.8084 36.2357 81.4157 35.8833C82.023 35.531 82.7262 35.3708 83.5253 35.3708C84.4203 35.3708 85.1874 35.595 85.8267 36.0115C86.4979 36.4279 87.0094 37.0365 87.361 37.8053C87.7126 38.574 87.9043 39.5029 87.9043 40.56V47.7992H84.708V40.9764C84.708 40.1436 84.5162 39.4709 84.1326 38.9904C83.7491 38.51 83.2376 38.2537 82.5664 38.2537C82.0869 38.2537 81.6714 38.3498 81.2878 38.574C80.9362 38.7982 80.6486 39.0865 80.4248 39.503C80.2011 39.8873 80.1052 40.3678 80.1052 40.8483V47.7672H76.9408ZM89.5025 47.7672V30.7262H92.6989V37.2287C93.1464 36.6521 93.6578 36.2036 94.2971 35.8513C94.9364 35.531 95.6396 35.3388 96.4387 35.3388C97.2378 35.3388 97.9729 35.4989 98.6442 35.8193C99.3154 36.1396 99.8907 36.588 100.402 37.1646C100.914 37.7412 101.297 38.4139 101.585 39.1506C101.873 39.9194 102 40.7522 102 41.6491C102 42.546 101.841 43.4109 101.553 44.1796C101.265 44.9484 100.85 45.6211 100.338 46.2297C99.8268 46.8063 99.2195 47.2867 98.5163 47.6071C97.8131 47.9274 97.0779 48.0875 96.2469 48.0875C95.4478 48.0875 94.7446 47.9274 94.1053 47.575C93.466 47.2547 92.9546 46.7742 92.5391 46.1656L92.4432 47.7352L89.5025 47.7672ZM95.7035 45.2367C96.2788 45.2367 96.7903 45.0765 97.2697 44.7882C97.7172 44.4679 98.0688 44.0515 98.3565 43.539C98.6122 43.0265 98.7401 42.4179 98.7401 41.7452C98.7401 41.0725 98.6122 40.4639 98.3565 39.9514C98.1008 39.4389 97.7172 39.0225 97.2697 38.7022C96.8222 38.3818 96.2788 38.2537 95.7035 38.2537C95.1281 38.2537 94.6167 38.4139 94.1373 38.7022C93.6898 39.0225 93.3382 39.4389 93.0505 39.9514C92.7628 40.4639 92.6669 41.0725 92.6669 41.7452C92.6669 42.4179 92.7948 43.0265 93.0505 43.539C93.3062 44.0515 93.6898 44.4679 94.1373 44.7882C94.6167 45.0765 95.0962 45.2367 95.7035 45.2367Z" fill="#FF385C"/>
</svg>
